<svg width="80" height="35" viewBox="0 0 80 35" fill="none" xmlns="http://www.w3.org/2000/svg">
<path fill-rule="evenodd" clip-rule="evenodd" d="M22.1063 0.707071H15.8694C15.3843 0.707071 15.315 0.707071 15.315 1.64983V23.3333C15.315 24.7475 14.5527 26.5152 13.3747 26.5152L9.42463 26.633C8.87325 26.633 8.34446 26.2605 7.95458 25.5975C7.5647 24.9345 7.34567 24.0353 7.34567 23.0976V20.9764C7.34567 20.505 7.27637 20.2694 6.99917 20.2694H0.346494C0.0692987 20.2694 0 20.505 0 20.9764V23.6869C0 28.6364 2.70265 34.0572 6.37548 34.0572H15.9387C19.8194 34.0572 22.5914 29.2256 22.5914 23.0976V1.76768C22.6607 0.942761 22.5221 0.707071 22.1063 0.707071ZM66.6654 0C72.6944 0 77.8225 4.83165 79.7628 11.5488C80.1093 12.8451 79.6242 12.8451 79.2085 12.8451H72.14C71.7242 12.8451 71.5163 12.6094 71.3084 12.0202C70.7565 10.866 70.0586 9.93812 69.2668 9.30565C68.475 8.67318 67.6095 8.35234 66.7347 8.367C63.5469 8.367 60.9829 12.4916 60.9829 17.4411C60.9829 22.3906 63.5469 26.5152 66.7347 26.5152C68.6057 26.5152 70.2689 25.101 71.3084 22.9798C71.5856 22.3906 71.7935 22.1549 72.2093 22.1549H79.347C79.8321 22.1549 80.1786 22.3906 79.9014 23.3333C77.9611 30.1683 72.833 35 66.7347 35C59.0425 35 52.8056 27.1044 52.8056 17.4411C52.7363 7.89562 58.9732 0 66.6654 0ZM37.9757 12.138L30.3528 33.8215C30.2142 34.2929 30.1449 34.2929 29.9371 34.2929H23.0765C22.7993 34.2929 22.6607 34.0572 22.8686 33.3502L33.9564 2.47475C34.4415 1.17845 34.7187 0.942761 35.481 0.942761H41.302C42.2029 0.942761 42.3415 1.06061 42.8266 2.47475L53.7065 33.1145C54.1223 34.2929 54.1223 34.2929 53.1521 34.2929H47.331C46.5688 34.2929 46.4301 34.0572 46.153 33.2323L44.5591 28.7542H34.7187C34.095 28.7542 33.8871 28.8721 34.1643 28.0471L36.1739 22.2727C36.4511 21.33 36.5204 21.4478 37.2134 21.4478H41.995L38.738 12.138C38.5301 11.1953 38.1836 11.3131 37.9757 12.138Z" fill="#CC000E"/>
</svg>
